<svg xmlns="http://www.w3.org/2000/svg" viewBox="0 0 1200 600">
  <defs>
    <filter id="soft" x="-20%" y="-20%" width="140%" height="140%">
      <feGaussianBlur in="SourceGraphic" stdDeviation="2" />
    </filter>
  </defs>
  <rect x="0" y="0" width="1200" height="600" fill="none"/>
  <!-- Simplified continent blobs for a subtle map silhouette -->
  <g fill="#94a3b8" opacity="0.12" filter="url(#soft)">
    <!-- North America -->
    <path d="M180,160 C260,120 380,120 420,180 C460,240 380,280 320,300 C260,320 180,280 160,230 C150,200 155,175 180,160 Z"/>
    <!-- South America -->
    <path d="M380,320 C430,320 470,350 480,390 C490,430 470,470 430,500 C400,520 370,510 360,480 C350,450 355,400 360,370 C365,345 360,330 380,320 Z"/>
    <!-- Europe -->
    <path d="M650,150 C690,140 740,150 760,180 C780,210 740,230 700,230 C670,230 640,220 635,200 C630,180 635,160 650,150 Z"/>
    <!-- Africa -->
    <path d="M700,250 C740,250 780,270 790,310 C800,350 780,390 750,420 C720,450 690,440 680,410 C670,380 680,320 685,290 C690,265 685,255 700,250 Z"/>
    <!-- Asia -->
    <path d="M780,180 C840,160 940,180 980,220 C1020,260 980,300 920,310 C880,320 820,300 800,270 C790,255 760,210 780,180 Z"/>
    <!-- Australia -->
    <path d="M980,430 C1010,430 1040,450 1045,475 C1050,500 1030,515 1000,520 C970,525 950,510 950,485 C950,460 960,440 980,430 Z"/>
  </g>
</svg>
